Coordinates
version=1
nRows=10
nColumns=34
inDegrees=yes

Units are S.I. units (second, meters, Newtons, ...)
If the header above contains a line with 'inDegrees', this indicates whether rotational values are in degrees (yes) or radians (no).

endheader
time	pelvis_tilt	pelvis_list	pelvis_rotation	pelvis_tx	pelvis_ty	pelvis_tz	hip_flexion_r	hip_adduction_r	hip_rotation_r	knee_angle_r	ankle_angle_r	subtalar_angle_r	mtp_angle_r	hip_flexion_l	hip_adduction_l	hip_rotation_l	knee_angle_l	ankle_angle_l	subtalar_angle_l	mtp_angle_l	lumbar_extension	lumbar_bending	lumbar_rotation	arm_flex_r	arm_add_r	arm_rot_r	elbow_flex_r	pro_sup_r	arm_flex_l	arm_add_l	arm_rot_l	elbow_flex_l	pro_sup_l
      0.00000000	     -3.76960908	     -0.00197857	      0.58782288	     -0.05901627	      1.20471409	     -0.06933342	      2.04120819	      0.02229413	     -6.36149149	      4.43034198	     16.23797270	      3.19795119	      0.00000000	      3.21932050	     -0.84499127	     -4.10862750	      5.63179556	     15.31895622	      2.81388384	      0.00000000	     -4.84221074	      0.15759648	     -5.09746399	      6.03492741	     -9.82845412	     28.14851646	     26.88773983	     76.57303033	     -2.79827075	     -9.87794148	     15.25306678	     32.19425277	     68.72877545
      0.01666670	     -6.05940792	     -0.11350457	      0.49187695	     -0.05793205	      1.20262811	     -0.06848734	      4.70503031	      0.24102305	     -4.81236673	      5.15280129	     18.03836986	      4.10554474	      0.00000000	      6.13232689	     -0.70299890	     -4.08381094	      6.15207987	     16.38769025	      3.74453427	      0.00000000	     -1.54443527	      0.22889721	     -4.83986179	      5.22263702	     -9.48373867	     26.33369669	     26.37924459	     76.36103864	     -3.09497420	     -9.29568654	     15.22872824	     31.19406015	     69.24977332
      0.03333330	     -6.80157961	      0.75384014	      0.02816452	     -0.05685354	      1.20609203	     -0.06669531	      5.15224878	     -0.52753214	     -4.93405067	      4.22256372	     17.88906096	      4.67064957	      0.00000000	      6.78946880	     -0.01545246	     -5.47638899	      5.87533841	     16.84126681	      4.23128238	      0.00000000	     -0.46899765	     -0.95686087	     -3.79204492	      4.39004816	     -8.54127965	     21.09126717	     26.40132723	     76.00950208	     -2.78896451	     -9.61163675	     16.13394840	     30.24301817	     71.13352857
      0.05000000	     -6.29751822	      1.14477905	     -0.03988251	     -0.05770657	      1.20694580	     -0.06606151	      4.17055214	     -0.81318439	     -4.74573087	      3.04077633	     17.83954777	      5.14548339	      0.00000000	      5.84080792	      0.35750894	     -5.74140397	      5.06150424	     16.58448612	      3.74240300	      0.00000000	     -1.10254260	     -1.51633189	     -3.76084778	      4.26617658	     -8.32808516	     20.35555332	     27.20864265	     76.18896897	     -2.82145630	    -10.26646092	     16.86565614	     30.30964484	     71.85382886
      0.06666670	     -6.38547625	      1.27857787	     -0.10911536	     -0.06135720	      1.20058304	     -0.06281819	      4.15442032	     -0.80576458	     -4.79500710	      2.75169459	     17.86830482	      5.11919886	      0.00000000	      5.95763691	      0.45877592	     -5.75526750	      5.08432284	     16.77002028	      3.66958743	      0.00000000	     -1.14944887	     -1.58032420	     -3.57463626	      4.54500544	     -8.30479269	     20.32412519	     27.33641966	     76.19601075	     -2.84952351	    -10.46919776	     16.88657551	     30.28724255	     71.88277429
      0.08333330	     -6.25691777	      1.45728879	     -0.28881339	     -0.06019062	      1.20294301	     -0.06125222	      3.82245129	     -0.88973774	     -4.51297333	      2.62904648	     17.48101344	      4.65729693	      0.00000000	      6.02575308	      0.53481166	     -5.89204157	      5.70808813	     17.39884467	      2.98977684	      0.00000000	     -1.52311780	     -1.81395150	     -2.79596148	      3.93526101	     -8.72281901	     20.02623822	     29.21523597	     76.65210886	     -2.48775092	    -11.30577818	     20.33838156	     31.07527338	     73.84464022
      0.10000000	     -6.27932581	      1.56267146	     -0.41156880	     -0.05915420	      1.20334689	     -0.05983651	      3.71766619	     -0.92100433	     -4.66231167	      2.54876405	     17.45950133	      4.57325651	      0.00000000	      6.05905604	      0.55694914	     -5.90428859	      5.99943341	     17.43397183	      2.94938613	      0.00000000	     -1.54159969	     -1.86239946	     -2.68695552	      3.95900108	     -8.73155451	     20.02827212	     29.22335511	     76.65730525	     -2.60897317	    -11.36158058	     20.36037492	     31.01692491	     73.85640173
      0.11666670	     -6.35080275	      1.70575678	     -0.28619267	     -0.06035304	      1.20263686	     -0.06092938	      3.71082993	     -0.98640445	     -4.57890701	      2.16984571	     17.14531982	      4.68143877	      0.00000000	      6.36415922	      0.69807655	     -5.91871940	      6.35753386	     17.65167043	      2.78634413	      0.00000000	     -1.63678696	     -2.03279306	     -2.61773301	      4.06265312	     -8.86428070	     20.06417851	     29.25745264	     76.67706885	     -2.58128213	    -11.36209634	     20.45292085	     30.99984958	     73.89231156
      0.13333330	     -6.39341742	      1.68734212	     -0.13237434	     -0.05926452	      1.19957803	     -0.05937289	      3.68959888	     -0.82596402	     -4.36579195	      1.85429722	     16.74706756	      4.81370746	      0.00000000	      6.63497151	      0.60868033	     -5.70109023	      6.66582536	     17.81154628	      2.70755060	      0.00000000	     -1.56499842	     -2.01477123	     -2.55489979	      3.97138769	     -8.92115386	     20.20202335	     29.32750931	     76.71781166	     -2.67166295	    -11.43273992	     20.61254917	     30.96928703	     73.94509237
      0.15000000	     -6.72313434	      1.59208657	      0.15174487	     -0.05971693	      1.20147196	     -0.05936345	      3.88047707	     -0.55578614	     -4.47900899	      1.51423283	     15.85464342	      4.59229536	      0.00000000	      7.13122776	      0.52837028	     -5.40791488	      6.82932113	     17.78684127	      2.35444651	      0.00000000	     -1.14127089	     -1.82248325	     -2.57832017	      3.76893165	     -9.14274918	     20.74410886	     29.65248411	     76.86916892	     -2.76618094	    -11.45494215	     21.23502878	     30.91674775	     74.12657763
